<svg width="17" height="17" viewBox="0 0 17 17" fill="none" xmlns="http://www.w3.org/2000/svg">
<path d="M14.875 4.23583C12.5162 4.00208 10.1433 3.88166 7.7775 3.88166C6.375 3.88166 4.9725 3.9525 3.57 4.09416L2.125 4.23583M6.02083 3.52041L6.17667 2.5925C6.29 1.91958 6.375 1.41666 7.57208 1.41666H9.42792C10.625 1.41666 10.7171 1.94791 10.8233 2.59958L10.9792 3.52041M13.3521 6.47416L12.8917 13.6071C12.8138 14.7192 12.75 15.5833 10.7737 15.5833H6.22625C4.25 15.5833 4.18625 14.7192 4.10833 13.6071L3.64792 6.47416M7.31708 11.6875H9.67583M6.72917 8.85416H10.2708" stroke="black" stroke-width="1.5" stroke-linecap="round" stroke-linejoin="round"/>
</svg>
