<svg width="17" height="17" viewBox="0 0 17 17" fill="none" xmlns="http://www.w3.org/2000/svg">
<path d="M12.7571 6.36791L10.6321 4.24291M2.47915 14.5208C3.06706 15.1087 4.01623 15.1087 4.60415 14.5208L13.8125 5.3125C14.4004 4.72458 14.4004 3.77541 13.8125 3.1875C13.2246 2.59958 12.2754 2.59958 11.6875 3.1875L2.47915 12.3958C1.89123 12.9837 1.89123 13.9329 2.47915 14.5208Z" stroke="black" stroke-width="1.5" stroke-linecap="round" stroke-linejoin="round"/>
<path d="M6.02083 1.72833L7.08333 1.41666L6.77167 2.47916L7.08333 3.54166L6.02083 3.23L4.95833 3.54166L5.27 2.47916L4.95833 1.41666L6.02083 1.72833ZM3.1875 5.97833L4.25 5.66666L3.93833 6.72916L4.25 7.79166L3.1875 7.48L2.125 7.79166L2.43667 6.72916L2.125 5.66666L3.1875 5.97833ZM13.8125 9.52L14.875 9.20833L14.5633 10.2708L14.875 11.3333L13.8125 11.0217L12.75 11.3333L13.0617 10.2708L12.75 9.20833L13.8125 9.52Z" stroke="black" stroke-linecap="round" stroke-linejoin="round"/>
</svg>
